<svg class="{{ with .class }}{{ . }} {{ end }} icon" width="24" height="24" version="1.1" xmlns="http://www.w3.org/2000/svg" xmlns:xlink="http://www.w3.org/1999/xlink" x="0px" y="0px" viewBox="0 0 1000 1000" enable-background="new 0 0 1000 1000" xml:space="preserve">
<metadata> Svg Vector Icons : http://www.onlinewebfonts.com/icon </metadata>
<g><g><g><path d="M500,10C229.4,10,10,229.4,10,500c0,270.6,219.4,490,490,490s490-219.4,490-490C990,229.4,770.6,10,500,10z M798.6,521.3l-247,67.8L539.8,568l-26.9-48.6l-60.1-108.2c42.8-7.3,79.8-9.2,111.8-7.3l56,89.4l134.2-32.5C702,409.1,605.7,360.6,429.6,392c-3.9,0.7-7.7,1.4-11.4,2.2l70.8,131.1l38.1,70.6L417,626.1l-136.9,37.6L157,697.5l-22.1,6.1c-8.5-13.2-15.4-27.2-20.5-42c-25.3-73.4-4.5-148.7,48.2-208.7c31.9-35.8,76.2-65.6,130.2-86.5l-33-69.1c29.3-9.4,61.1-16.4,94.8-20.9l34.7,64.2c3.7-0.6,7.5-1.2,11.2-1.8c104.3-15.7,206.2-16.7,300.2,5.4v0c95.9,18.9,183.9,60.8,224.5,107.8c8.2,9.5,15.4,18.4,21.2,28.5l-22.2,6.2L798.6,521.3z"/><path d="M247.1,583.8l134.2-32.5l-60-125.5C244.6,466.9,234.9,528.6,247.1,583.8z"/></g></g><g></g><g></g><g></g><g></g><g></g><g></g><g></g><g></g><g></g><g></g><g></g><g></g><g></g><g></g><g></g></g>
</svg>